<?xml version="1.0" encoding="utf-8"?>
<!-- Generator: Adobe Illustrator 25.0.1, SVG Export Plug-In . SVG Version: 6.00 Build 0)  -->
<svg version="1.1" id="圖層_1" xmlns="http://www.w3.org/2000/svg" xmlns:xlink="http://www.w3.org/1999/xlink" x="0px" y="0px"
	 viewBox="0 0 800 700" style="enable-background:new 0 0 800 700;" xml:space="preserve">
<style type="text/css">
	.st0{fill:none;stroke:#FFFFFF;stroke-width:3;stroke-miterlimit:10;}
</style>
<g>
	<path class="st0" d="M349.1,254.34L154.63,591.17h279.89h210.86L539.94,408.56l0,0l-15.12-26.2l-73.91-128.02l-14.61,8.43
		l38.71,67.05H324.99l38.71-67.05L349.1,254.34z M358.97,574.31V346.7h27.5v227.61H358.97z M403.34,574.31V346.7h71.67l-50.32,87.17
		h100.65l-81.08,140.44H403.34z M525.34,417H453.9l35.72-61.87l17.97,31.13L525.34,417z M463.73,574.31l76.22-132.01l76.22,132.01
		H463.73z M342.11,346.7v227.61H183.84L315.25,346.7H342.11z"/>
	<polygon class="st0" points="607.9,411.58 593.3,420.01 715.49,631.65 84.51,631.65 400,85.21 516.21,286.5 530.82,278.07 
		400,51.48 55.3,648.52 744.7,648.52 	"/>
</g>
</svg>
