<?xml version="1.0" encoding="utf-8"?>
<!-- Generator: Adobe Illustrator 25.0.1, SVG Export Plug-In . SVG Version: 6.00 Build 0)  -->
<svg version="1.1" id="圖層_1" xmlns="http://www.w3.org/2000/svg" xmlns:xlink="http://www.w3.org/1999/xlink" x="0px" y="0px"
	 viewBox="0 0 1200 1040" style="enable-background:new 0 0 1200 1040;" xml:space="preserve">
<style type="text/css">
	.st0{fill:#FFFFFF;}
</style>
<g>
	<path class="st0" d="M1017.34,929.14H182.66l1.3-2.25l329.45-570.62l27.29,15.75l-64.89,112.39h248.38L659.3,372.02l27.29-15.75
		L1017.34,929.14z M187.86,926.14h824.29L685.49,360.37l-22.09,12.75l65.98,114.29H470.61l65.98-114.29l-22.09-12.75L187.86,926.14z
		 M967.96,900.63H705.12L836.54,673L967.96,900.63z M710.31,897.63h252.45L836.54,679L710.31,897.63z M675.66,900.63h-71.52V512.92
		h125.25l-85.06,147.33h170.12L675.66,900.63z M607.14,897.63h66.79l135.32-234.38H639.13l85.06-147.33H607.14V897.63z
		 M578.63,900.63h-49.48V512.92h49.48V900.63z M532.15,897.63h43.48V515.92h-43.48V897.63z M503.65,900.63H232.04l223.85-387.72
		h47.76V900.63z M237.24,897.63h263.41V515.92h-43.03L237.24,897.63z M814.45,634.74H688.51l62.97-109.07L814.45,634.74z
		 M693.7,631.74h115.55l-57.78-100.07L693.7,631.74z"/>
	<path class="st0" d="M1185.22,1026.07H14.77l1.3-2.25L600,12.43l223.16,386.53l-27.29,15.75L600,75.45L69.35,994.56h1061.3
		L924.67,637.79l27.29-15.75L1185.22,1026.07z M19.97,1023.07h1160.06L950.86,626.13l-22.09,12.75l207.08,358.67H64.15l1.3-2.25
		L600,69.45l196.97,341.17l22.09-12.75L600,18.43L19.97,1023.07z"/>
</g>
</svg>
